<svg width="24" height="24" viewBox="0 0 24 24" fill="none" xmlns="http://www.w3.org/2000/svg">
<mask id="mask0_1_2186" style="mask-type:luminance" maskUnits="userSpaceOnUse" x="0" y="0" width="24" height="24">
<path d="M0 0H24V24H0V0Z" fill="white"/>
</mask>
<g mask="url(#mask0_1_2186)">
<mask id="mask1_1_2186" style="mask-type:luminance" maskUnits="userSpaceOnUse" x="0" y="-1" width="25" height="25">
<path d="M5.66016 1.11707C7.15739 0.788715 8.73433 1.1566 10.041 2.17273L10.2988 2.38464C10.6901 2.72489 11.0346 3.10767 11.3281 3.52527L12.1631 4.71179L12.9756 3.50964C13.1616 3.23426 13.367 2.97675 13.5908 2.73914L13.8213 2.50769C14.981 1.40673 16.4406 0.923311 17.9521 1.10925V1.11023C20.3944 1.41385 22.4999 3.57744 22.9189 6.53406C23.2178 8.64176 22.6966 10.5245 21.2617 12.3563L12.166 22.5077L2.83789 12.2811C1.31814 10.6103 0.138841 7.49496 1.83496 4.30164C2.75601 2.56657 4.17302 1.4453 5.65918 1.11609L5.66016 1.11707Z" stroke="white" stroke-width="2"/>
</mask>
<g mask="url(#mask1_1_2186)">
<path d="M0.951448 3.83233C-0.99454 7.49607 0.376602 11.0621 2.09921 12.9551L12.1729 24L22.0336 12.9943C23.6359 10.9582 24.2501 8.79844 23.909 6.39351C23.4376 3.06693 21.039 0.485942 18.0757 0.117544C16.2582 -0.106488 14.5028 0.481541 13.1324 1.7826C12.7636 2.13295 12.4341 2.52424 12.1467 2.94985C11.806 2.46526 11.4063 2.02247 10.9542 1.62943C9.37853 0.26103 7.37275 -0.282544 5.44605 0.139991C3.6212 0.54316 1.98347 1.88823 0.951448 3.83233Z" stroke="black" stroke-width="2"/>
</g>
</g>
</svg>
